<svg xmlns="http://www.w3.org/2000/svg" viewBox="227 347 222 294">
  <!-- Document body -->
  <path d="M0 0 C1.40981172 -0.14294196 1.40981172 -0.14294196 2.84810448 -0.28877163 C90.66049555 -8.75504479 90.66049555 -8.75504479 120.94702148 16.17727661 C140.93471734 33.50715747 158.01897582 54.68222181 160.19439697 81.75904846 C160.63307285 94.15222449 161.21081951 112.92039391 153.19995117 123.29272461 C150.43652256 125.1519639 148.06671591 125.63287192 144.76245117 125.73022461 C144.02124023 125.77018555 143.2800293 125.81014648 142.51635742 125.85131836 C138.82543077 124.96126354 137.50508765 123.28525033 135.19995117 120.29272461 C134.51273066 116.91414388 134.61700969 113.61512032 134.71166992 110.17944336 C134.72228203 108.7251165 134.72228203 108.7251165 134.73310852 107.2414093 C134.76103244 104.15355324 134.82376814 101.06752986 134.88745117 97.98022461 C134.91253659 95.88324564 134.93534933 93.78623817 134.95581055 91.68920898 C135.01085279 86.55634452 135.09711258 81.42484497 135.19995117 76.29272461 C133.93924805 76.32938232 132.67854492 76.36604004 131.37963867 76.40380859 C126.67605751 76.53106962 121.97262656 76.61107178 117.26782227 76.67724609 C115.23663698 76.71232227 113.20562684 76.75999816 111.17504883 76.82080078 C108.24540922 76.90629051 105.31811592 76.94554025 102.38745117 76.97631836 C101.48816895 77.01244736 100.58888672 77.04857635 99.66235352 77.08580017 C93.46556039 77.0896086 90.30403319 75.50376989 85.78710938 71.28822327 C81.70034468 66.15002504 81.93019528 61.11722656 82.00463867 54.83569336 C82.0243751 49.22623227 82.0494722 46.35333906 82.07495117 43.48022461 C82.12430109 32.84598895 82.15880286 28.0694103 82.19995117 23.29272461 C70.69922257 23.33078247 59.19881949 23.39014588 47.69834709 23.47662735 C42.35804906 23.51611771 37.01791631 23.54829864 31.67749023 23.5637207 C16.21341324 23.66103363 14.24790524 23.67585809 12.28233237 23.68376623 C7.56102954 23.68697664 4.80654754 23.7140442 2.05102539 23.74682617 C-5.65641019 23.82807527 -8.61284332 24.85737479 -12.80004883 28.29272461 C-17.26979664 33.2456884 -17.92494324 36.59484582 -17.95394897 43.17172241 C-17.98061044 47.66978256 -17.98679417 50.03468718 -17.99291992 52.3996582 C-18.04392474 63.05070386 -18.05923466 68.62091595 -18.07348633 74.19116211 C-18.11125374 87.94251288 -18.12998671 95.93419901 -18.14124107 103.92590904 C-18.15745338 115.36210824 -18.19055779 126.79796622 -18.24764192 138.2340368 C-18.3058857 154.3311553 -18.31116164 162.37985098 -18.35926437 176.78583908 C-18.3955967 185.83726875 -18.38388062 190.36335373 -18.40953445 195.32010651 C-18.53581161 207.80865146 -16.77140277 219.14736505 -8.80004883 229.29272461 C-3.52601118 236.22089097 1.42980757 239.17958389 7.19995117 242.29272461 C-8.83951489 216.45678432 -9.84025988 195.84245651 -6.80004883 177.54272461 C-2.14602127 157.67692181 10.49404458 142.42999567 27.19995117 131.29272461 C44.52823315 120.96191333 65.46240564 118.10110885 85.07495117 122.98022461 C92.07311157 124.98579497 97.06398502 127.08877538 101.19995117 133.29272461 C101.72401946 137.22323675 101.34785204 139.01805157 99.44995117 142.54272461 C96.2587747 146.44305141 93.19995117 147.29272461 93.19995117 147.29272461 C88.49281874 147.68498565 81.53979492 145.80053711 76.84072731 143.96985187 C72.51560887 143.79398114 67.51245117 143.85522461 64.85253906 143.88037109 C50.71496429 144.24493552 39.19369469 149.44312131 28.88745117 159.10522461 C19.19995117 173.29272461 19.19995117 173.29272461 17.94213867 175.70678711 C12.4824076 188.03890694 14.614587 203.43515457 17.19995117 216.29272461 C26.85135851 231.53087081 36.92160809 240.0459367 50.76245117 245.23022461 C65.68537288 249.11163074 82.50302739 246.66678338 95.66870117 238.94897461 C115.86384745 218.65959959 119.19995117 204.29272461 119.19995117 204.29272461 C119.96651693 187.44457499 122.63745117 184.29272461 122.63745117 184.29272461 C126.07029506 181.73052953 133.85620117 181.75366211 133.85620117 181.75366211 C137.39757417 182.5681779 141.19995117 187.29272461 142.19995117 188.29272461 C143.26484097 201.85697663 135.12963867 227.30053711 135.12963867 227.30053711 C140.49133992 243.82770546 149.26245117 251.85522461 149.26245117 251.85522461 C156.21925643 258.12969102 161.16503906 262.94335938 161.16503906 262.94335938 C165.06599505 266.80866112 167.57495117 275.29272461 167.57495117 275.29272461 C167.10251395 279.0722224 163.19995117 283.29272461 163.19995117 283.29272461 C160.07029324 285.37916323 154.36206055 285.80175781 148.41870117 282.21069336 C140.27342853 274.68517595 117.19995117 252.29272461 117.19995117 252.29272461 C104.10620117 260.89819336 54.13720703 269.62890625 44.04174805 269.61499023 C17.14137106 269.5830588 -23.10083008 248.21459961 -33.05004883 233.73022461 C-40.28395881 219.14992574 -41.39459536 205.76881294 -41.31762695 191.81762695 C-41.35691205 182.24276011 -41.33735085 173.19773054 -41.33735085 173.19773054 C-41.35014366 150.92151275 -41.3215332 134.94116211 -41.3215332 134.94116211 C-41.29975501 125.73651055 -41.32883883 107.32757032 -41.34705614 99.38566275 C-41.34952079 91.44386115 -41.33288579 78.77549923 -41.3319121 74.04922503 C-41.35688131 64.87869302 -41.32565308 55.99098778 -41.32041568 54.37140461 C-41.39734138 37.77754632 -40.42461317 24.51309531 -30.80004883 14.29272461 C-20.86699209 3.80498907 -11.54549787 1.11236002 0 0 Z" fill="#0F182F" transform="translate(268.800048828125,355.707275390625)"/>
  <!-- Document lines -->
  <path d="M0 0 C0.91114059 -0.0071553 78.45944214 0.07788086 78.45944214 0.07788086 C84.25629537 0.17134449 87.39866638 2.5372467 88.86694336 12.63110352 C87.58824825 14.35296726 85.86694336 15.63110352 85.86694336 15.63110352 C82.77083296 15.93280943 64.71459961 16.06469727 64.71459961 16.06469727 C49.32960103 16.08707572 27.5905695 16.11506557 14.33910942 16.12742805 C5.01290344 16.16057311 -0.9140625 16.1328125 -3.57641602 16.16210938 C-9.50188512 16.09007292 -12.67408752 13.78334045 -14.13305664 5.63110352 C-9.98712433 0.03387751 0 0 0 0 Z" fill="#0d9488" transform="translate(289.133056640625,448.368896484375)"/>
  <path d="M0 0 C40.13671875 0 40.13671875 0 40.13671875 0 C45.68807604 0.47781183 49.13305664 3.38818359 49.13305664 3.38818359 C49.97970987 10.05557779 47.80126953 13.484375 33.91040039 15.88427734 C25.95115257 15.87546581 6.22290039 15.82177734 2.99363708 15.83067322 C-5.3371504 15.30651397 -7.86694336 12.38818359 -8.26538086 5.54443359 C-7.38703043 0.79100777 0 0 0 0 Z" fill="#0d9488" transform="translate(283.866943359375,416.61181640625)"/>
  <!-- Magnifying glass -->
  <path d="M0 0 C0.95648438 0.00902344 9.875 0.125 9.875 0.125 C8.74320312 1.17398437 2 1.5 2 1.5 C-4.65973188 1.68143831 -8.125 4.125 -8.125 4.125 C-12.61297128 4.27860862 -15 3.5625 -15 3.5625 C-18.1540197 2.913143 -24.125 4.125 -24.125 4.125 C-17.09554941 -0.56130039 0 0 0 0 Z" fill="#0d9488" transform="translate(335.125,476.875)"/>
  <path d="M0 0 C0.66 0.33 2 1 2 1 C-0.46074699 5.19774486 -8 8 -8 8 C-10.22265625 7.57421875 -12 7 -12 7 C-6.5625 4.0625 0 0 0 0 Z" fill="#0d9488" transform="translate(368,592)"/>
  <path d="M0 0 C2.66735273 2.48952921 6 8 6 8 C2.22454612 6.90931332 -3 3 -3 3 C-2.01 3 0 0 0 0 Z" fill="#CFD0D7" transform="translate(272,591)"/>
  <path d="M0 0 C5.2734375 4.39453125 9 9 9 9 C4.74822077 8.52758009 0 3 0 3 C0 2.01 0 0 0 0 Z" fill="#0d9488" transform="translate(415,605)"/>
  <path d="M0 0 C2 3 2 3 -2 7 C-2.99 6.67 -5 6 -5 6 C-3.35 4.02 0 0 0 0 Z" fill="#0d9488" transform="translate(282,498)"/>
  <path d="M0 0 C2 1 2 1 -7 7 C-4.66666667 4.66666667 0 0 0 0 Z" fill="#DBDDE3" transform="translate(306,507)"/>
  <!-- Checkmark (teal) -->
  <path d="M0 0 C4.6 2.2 6 5 6 5 C6.90607735 11.56906077 4.71875 15.0234375 4.71875 15.0234375 C2.89627916 17.11927896 -1 21 -3 23 C-4.26045971 24.26045971 -6.8125 26.75 -6.8125 26.75 C-8.70736524 28.69900425 -12.25 32.75 -12.25 32.75 C-16.59809173 37.75633163 -26.0390625 47 -26.0390625 47 C-30.03514379 50.94979463 -37.45703125 59.28100586 -37.45703125 59.28100586 C-39.75233094 61.83815857 -45 65 -45 65 C-50.5581185 64.77408964 -56.98828125 59.6328125 -56.98828125 59.6328125 C-62.3125 54.125 -65.05664062 51.32421875 -65.05664062 51.32421875 C-73.83129559 42.30745922 -74.5 37.125 -74.5 37.125 C-74.39828905 33.45662525 -71.4375 29.9375 -71.4375 29.9375 C-68 28 -64.75 27.625 -64.75 27.625 C-59.95207803 29.38423806 -46 42 -46 42 C-45.75467529 41.42797852 -43.78524527 37.61263203 -43.78524527 37.61263203 C-42.06447599 35.85500817 -39.89453125 33.734375 -39.89453125 33.734375 C-38.66573242 32.52201172 -37.41210938 31.28515625 -37.41210938 31.28515625 C-35.69636719 29.61195313 -34.8125 28.75 -34.8125 28.75 C-28.95782843 23.01683199 -18 11 -18 11 C-16.20136569 8.9600818 -12.5 5 -12.5 5 C-11.6234375 4.05125 -9.84375 2.125 -9.84375 2.125 C-6.28286526 -0.5358809 0 0 0 0 Z" fill="#0d9488" transform="translate(381,509)"/>
  <path d="M0 0 C3.01286852 1.76997892 7 7 7 7 C7.3885634 11.11877201 5.1875 16.8125 5.1875 16.8125 C2.09743641 19.90256359 -3.875 21.4375 -3.875 21.4375 C-7.47514001 21.37119908 -14 15 -14 15 C-14.58447461 11.00485712 -12.94140625 3.2265625 -12.94140625 3.2265625 C-9.13333101 -0.34415304 0 0 0 0 Z" fill="#0d9488" transform="translate(418,495)"/>
</svg>
